<svg id="my-svg" width="100%" xmlns="http://www.w3.org/2000/svg" xmlns:xlink="http://www.w3.org/1999/xlink" class="flowchart" style="max-width: 2456.81px; background-color: white;" viewBox="0 0 2456.81005859375 831" role="graphics-document document" aria-roledescription="flowchart-v2"><style>#my-svg{font-family:Inter,Pretendard,Arial;font-size:18px;fill:#14213d;}@keyframes edge-animation-frame{from{stroke-dashoffset:0;}}@keyframes dash{to{stroke-dashoffset:0;}}#my-svg .edge-animation-slow{stroke-dasharray:9,5!important;stroke-dashoffset:900;animation:dash 50s linear infinite;stroke-linecap:round;}#my-svg .edge-animation-fast{stroke-dasharray:9,5!important;stroke-dashoffset:900;animation:dash 20s linear infinite;stroke-linecap:round;}#my-svg .error-icon{fill:#ecfdf3;}#my-svg .error-text{fill:#13020c;stroke:#13020c;}#my-svg .edge-thickness-normal{stroke-width:1px;}#my-svg .edge-thickness-thick{stroke-width:3.5px;}#my-svg .edge-pattern-solid{stroke-dasharray:0;}#my-svg .edge-thickness-invisible{stroke-width:0;fill:none;}#my-svg .edge-pattern-dashed{stroke-dasharray:3;}#my-svg .edge-pattern-dotted{stroke-dasharray:2;}#my-svg .marker{fill:#4b5563;stroke:#4b5563;}#my-svg .marker.cross{stroke:#4b5563;}#my-svg svg{font-family:Inter,Pretendard,Arial;font-size:18px;}#my-svg p{margin:0;}#my-svg .label{font-family:Inter,Pretendard,Arial;color:#14213d;}#my-svg .cluster-label text{fill:#13020c;}#my-svg .cluster-label span{color:#13020c;}#my-svg .cluster-label span p{background-color:transparent;}#my-svg .label text,#my-svg span{fill:#14213d;color:#14213d;}#my-svg .node rect,#my-svg .node circle,#my-svg .node ellipse,#my-svg .node polygon,#my-svg .node path{fill:#e8f3ff;stroke:#2f6f9f;stroke-width:1px;}#my-svg .rough-node .label text,#my-svg .node .label text,#my-svg .image-shape .label,#my-svg .icon-shape .label{text-anchor:middle;}#my-svg .node .katex path{fill:#000;stroke:#000;stroke-width:1px;}#my-svg .rough-node .label,#my-svg .node .label,#my-svg .image-shape .label,#my-svg .icon-shape .label{text-align:center;}#my-svg .node.clickable{cursor:pointer;}#my-svg .root .anchor path{fill:#4b5563!important;stroke-width:0;stroke:#4b5563;}#my-svg .arrowheadPath{fill:#0b0b0b;}#my-svg .edgePath .path{stroke:#4b5563;stroke-width:2.0px;}#my-svg .flowchart-link{stroke:#4b5563;fill:none;}#my-svg .edgeLabel{background-color:#f6f1ff;text-align:center;}#my-svg .edgeLabel p{background-color:#f6f1ff;}#my-svg .edgeLabel rect{opacity:0.5;background-color:#f6f1ff;fill:#f6f1ff;}#my-svg .labelBkg{background-color:rgba(246, 241, 255, 0.5);}#my-svg .cluster rect{fill:#ecfdf3;stroke:hsl(144.7058823529, 40.9523809524%, 85.8823529412%);stroke-width:1px;}#my-svg .cluster text{fill:#13020c;}#my-svg .cluster span{color:#13020c;}#my-svg div.mermaidTooltip{position:absolute;text-align:center;max-width:200px;padding:2px;font-family:Inter,Pretendard,Arial;font-size:12px;background:#ecfdf3;border:1px solid hsl(144.7058823529, 40.9523809524%, 85.8823529412%);border-radius:2px;pointer-events:none;z-index:100;}#my-svg .flowchartTitleText{text-anchor:middle;font-size:18px;fill:#14213d;}#my-svg rect.text{fill:none;stroke-width:0;}#my-svg .icon-shape,#my-svg .image-shape{background-color:#f6f1ff;text-align:center;}#my-svg .icon-shape p,#my-svg .image-shape p{background-color:#f6f1ff;padding:2px;}#my-svg .icon-shape rect,#my-svg .image-shape rect{opacity:0.5;background-color:#f6f1ff;fill:#f6f1ff;}#my-svg .label-icon{display:inline-block;height:1em;overflow:visible;vertical-align:-0.125em;}#my-svg .node .label-icon path{fill:currentColor;stroke:revert;stroke-width:revert;}#my-svg :root{--mermaid-font-family:"trebuchet ms",verdana,arial,sans-serif;}#my-svg .source&gt;*{fill:#e8f3ff!important;stroke:#2563eb!important;color:#111827!important;stroke-width:2px!important;}#my-svg .source span{fill:#e8f3ff!important;stroke:#2563eb!important;color:#111827!important;stroke-width:2px!important;}#my-svg .source tspan{fill:#111827!important;}#my-svg .managed&gt;*{fill:#ecfdf3!important;stroke:#16a34a!important;color:#111827!important;stroke-width:2px!important;}#my-svg .managed span{fill:#ecfdf3!important;stroke:#16a34a!important;color:#111827!important;stroke-width:2px!important;}#my-svg .managed tspan{fill:#111827!important;}#my-svg .removed&gt;*{fill:#fff1f2!important;stroke:#e11d48!important;color:#111827!important;stroke-width:2px!important;}#my-svg .removed span{fill:#fff1f2!important;stroke:#e11d48!important;color:#111827!important;stroke-width:2px!important;}#my-svg .removed tspan{fill:#111827!important;}#my-svg .action&gt;*{fill:#f8fafc!important;stroke:#64748b!important;color:#111827!important;stroke-width:1.5px!important;}#my-svg .action span{fill:#f8fafc!important;stroke:#64748b!important;color:#111827!important;stroke-width:1.5px!important;}#my-svg .action tspan{fill:#111827!important;}</style><g><marker id="my-svg_flowchart-v2-pointEnd" class="marker flowchart-v2" viewBox="0 0 10 10" refX="5" refY="5" markerUnits="userSpaceOnUse" markerWidth="8" markerHeight="8" orient="auto"><path d="M 0 0 L 10 5 L 0 10 z" class="arrowMarkerPath" style="stroke-width: 1; stroke-dasharray: 1, 0;"/></marker><marker id="my-svg_flowchart-v2-pointStart" class="marker flowchart-v2" viewBox="0 0 10 10" refX="4.5" refY="5" markerUnits="userSpaceOnUse" markerWidth="8" markerHeight="8" orient="auto"><path d="M 0 5 L 10 10 L 10 0 z" class="arrowMarkerPath" style="stroke-width: 1; stroke-dasharray: 1, 0;"/></marker><marker id="my-svg_flowchart-v2-circleEnd" class="marker flowchart-v2" viewBox="0 0 10 10" refX="11" refY="5" markerUnits="userSpaceOnUse" markerWidth="11" markerHeight="11" orient="auto"><circle cx="5" cy="5" r="5" class="arrowMarkerPath" style="stroke-width: 1; stroke-dasharray: 1, 0;"/></marker><marker id="my-svg_flowchart-v2-circleStart" class="marker flowchart-v2" viewBox="0 0 10 10" refX="-1" refY="5" markerUnits="userSpaceOnUse" markerWidth="11" markerHeight="11" orient="auto"><circle cx="5" cy="5" r="5" class="arrowMarkerPath" style="stroke-width: 1; stroke-dasharray: 1, 0;"/></marker><marker id="my-svg_flowchart-v2-crossEnd" class="marker cross flowchart-v2" viewBox="0 0 11 11" refX="12" refY="5.2" markerUnits="userSpaceOnUse" markerWidth="11" markerHeight="11" orient="auto"><path d="M 1,1 l 9,9 M 10,1 l -9,9" class="arrowMarkerPath" style="stroke-width: 2; stroke-dasharray: 1, 0;"/></marker><marker id="my-svg_flowchart-v2-crossStart" class="marker cross flowchart-v2" viewBox="0 0 11 11" refX="-1" refY="5.2" markerUnits="userSpaceOnUse" markerWidth="11" markerHeight="11" orient="auto"><path d="M 1,1 l 9,9 M 10,1 l -9,9" class="arrowMarkerPath" style="stroke-width: 2; stroke-dasharray: 1, 0;"/></marker><g class="root"><g class="clusters"/><g class="edgePaths"><path d="M247.451,409.25L252.201,409.167C256.951,409.083,266.451,408.917,275.367,408.833C284.284,408.75,292.617,408.75,296.784,408.75L300.951,408.75" id="L_TRIGGER_APP_0" class="edge-thickness-normal edge-pattern-solid edge-thickness-normal edge-pattern-solid flowchart-link" style=";" data-edge="true" data-et="edge" data-id="L_TRIGGER_APP_0" data-points="W3sieCI6MjQ3LjQ1MDY3Njc1NTI2NjI0LCJ5Ijo0MDkuMjV9LHsieCI6Mjc1Ljk1MDY4MzU5Mzc1LCJ5Ijo0MDguNzV9LHsieCI6MzA0Ljk1MDY4MzU5Mzc1LCJ5Ijo0MDguNzV9XQ==" marker-end="url(#my-svg_flowchart-v2-pointEnd)"/><path d="M500.966,408.75L505.8,408.75C510.633,408.75,520.3,408.75,529.3,408.75C538.3,408.75,546.633,408.75,550.8,408.75L554.966,408.75" id="L_APP_INV_0" class="edge-thickness-normal edge-pattern-solid edge-thickness-normal edge-pattern-solid flowchart-link" style=";" data-edge="true" data-et="edge" data-id="L_APP_INV_0" data-points="W3sieCI6NTAwLjk2NjMwODU5Mzc1LCJ5Ijo0MDguNzV9LHsieCI6NTI5Ljk2NjMwODU5Mzc1LCJ5Ijo0MDguNzV9LHsieCI6NTU4Ljk2NjMwODU5Mzc1LCJ5Ijo0MDguNzV9XQ==" marker-end="url(#my-svg_flowchart-v2-pointEnd)"/><path d="M693.762,366.75L715.14,316.208C736.518,265.667,779.273,164.583,805.647,114.042C832.021,63.5,842.013,63.5,847.009,63.5L852.005,63.5" id="L_INV_SOURCE_0" class="edge-thickness-normal edge-pattern-solid edge-thickness-normal edge-pattern-solid flowchart-link" style=";" data-edge="true" data-et="edge" data-id="L_INV_SOURCE_0" data-points="W3sieCI6NjkzLjc2MjQwMjkwOTQ2MzMsInkiOjM2Ni43NX0seyJ4Ijo4MjIuMDI4ODA4NTkzNzUsInkiOjYzLjV9LHsieCI6ODU2LjAwNTM3MTA5Mzc1LCJ5Ijo2My41fV0=" marker-end="url(#my-svg_flowchart-v2-pointEnd)"/><path d="M793.029,408.75L797.862,408.75C802.695,408.75,812.362,408.75,821.362,408.75C830.362,408.75,838.695,408.75,842.862,408.75L847.029,408.75" id="L_INV_MANAGED_0" class="edge-thickness-normal edge-pattern-solid edge-thickness-normal edge-pattern-solid flowchart-link" style=";" data-edge="true" data-et="edge" data-id="L_INV_MANAGED_0" data-points="W3sieCI6NzkzLjAyODgwODU5Mzc1LCJ5Ijo0MDguNzV9LHsieCI6ODIyLjAyODgwODU5Mzc1LCJ5Ijo0MDguNzV9LHsieCI6ODUxLjAyODgwODU5Mzc1LCJ5Ijo0MDguNzV9XQ==" marker-end="url(#my-svg_flowchart-v2-pointEnd)"/><path d="M693.094,450.75L714.583,503.542C736.072,556.333,779.051,661.917,804.753,714.708C830.456,767.5,838.883,767.5,843.097,767.5L847.31,767.5" id="L_INV_REMOVED_0" class="edge-thickness-normal edge-pattern-solid edge-thickness-normal edge-pattern-solid flowchart-link" style=";" data-edge="true" data-et="edge" data-id="L_INV_REMOVED_0" data-points="W3sieCI6NjkzLjA5MzkwMDA1NzE2NDcsInkiOjQ1MC43NX0seyJ4Ijo4MjIuMDI4ODA4NTkzNzUsInkiOjc2Ny41fSx7IngiOjg1MS4zMTAwNTg1OTM3NSwieSI6NzY3LjV9XQ==" marker-end="url(#my-svg_flowchart-v2-pointEnd)"/><path d="M1106.615,63.5L1112.278,63.5C1117.94,63.5,1129.266,63.5,1140.422,63.5C1151.578,63.5,1162.565,63.5,1168.059,63.5L1173.552,63.5" id="L_SOURCE_SRC_CHECKS_0" class="edge-thickness-normal edge-pattern-solid edge-thickness-normal edge-pattern-solid flowchart-link" style=";" data-edge="true" data-et="edge" data-id="L_SOURCE_SRC_CHECKS_0" data-points="W3sieCI6MTEwNi42MTQ3NDYwOTM3NSwieSI6NjMuNX0seyJ4IjoxMTQwLjU5MTMwODU5Mzc1LCJ5Ijo2My41fSx7IngiOjExNzcuNTUyMjQ2MDkzNzUsInkiOjYzLjV9XQ==" marker-end="url(#my-svg_flowchart-v2-pointEnd)"/><path d="M1012.389,366.75L1033.756,337.875C1055.123,309,1097.857,251.25,1123.963,222.375C1150.068,193.5,1159.544,193.5,1164.283,193.5L1169.021,193.5" id="L_MANAGED_README_0" class="edge-thickness-normal edge-pattern-solid edge-thickness-normal edge-pattern-solid flowchart-link" style=";" data-edge="true" data-et="edge" data-id="L_MANAGED_README_0" data-points="W3sieCI6MTAxMi4zODkzMjY4ODY0MzMsInkiOjM2Ni43NX0seyJ4IjoxMTQwLjU5MTMwODU5Mzc1LCJ5IjoxOTMuNX0seyJ4IjoxMTczLjAyMDk5NjA5Mzc1LCJ5IjoxOTMuNX1d" marker-end="url(#my-svg_flowchart-v2-pointEnd)"/><path d="M1074.548,366.75L1085.555,361.792C1096.562,356.833,1118.577,346.917,1133.751,341.958C1148.925,337,1157.258,337,1161.425,337L1165.591,337" id="L_MANAGED_CHECKS_0" class="edge-thickness-normal edge-pattern-solid edge-thickness-normal edge-pattern-solid flowchart-link" style=";" data-edge="true" data-et="edge" data-id="L_MANAGED_CHECKS_0" data-points="W3sieCI6MTA3NC41NDc4NjM0NzE3OTg4LCJ5IjozNjYuNzV9LHsieCI6MTE0MC41OTEzMDg1OTM3NSwieSI6MzM3fSx7IngiOjExNjkuNTkxMzA4NTkzNzUsInkiOjMzN31d" marker-end="url(#my-svg_flowchart-v2-pointEnd)"/><path d="M1074.548,450.75L1085.555,455.708C1096.562,460.667,1118.577,470.583,1135.412,475.542C1152.248,480.5,1163.904,480.5,1169.732,480.5L1175.56,480.5" id="L_MANAGED_ISSUES_0" class="edge-thickness-normal edge-pattern-solid edge-thickness-normal edge-pattern-solid flowchart-link" style=";" data-edge="true" data-et="edge" data-id="L_MANAGED_ISSUES_0" data-points="W3sieCI6MTA3NC41NDc4NjM0NzE3OTg4LCJ5Ijo0NTAuNzV9LHsieCI6MTE0MC41OTEzMDg1OTM3NSwieSI6NDgwLjV9LHsieCI6MTE3OS41NjAwNTg1OTM3NSwieSI6NDgwLjV9XQ==" marker-end="url(#my-svg_flowchart-v2-pointEnd)"/><path d="M1012.389,450.75L1033.756,479.625C1055.123,508.5,1097.857,566.25,1123.391,595.125C1148.925,624,1157.258,624,1161.425,624L1165.591,624" id="L_MANAGED_POLICY_0" class="edge-thickness-normal edge-pattern-solid edge-thickness-normal edge-pattern-solid flowchart-link" style=";" data-edge="true" data-et="edge" data-id="L_MANAGED_POLICY_0" data-points="W3sieCI6MTAxMi4zODkzMjY4ODY0MzMsInkiOjQ1MC43NX0seyJ4IjoxMTQwLjU5MTMwODU5Mzc1LCJ5Ijo2MjR9LHsieCI6MTE2OS41OTEzMDg1OTM3NSwieSI6NjI0fV0=" marker-end="url(#my-svg_flowchart-v2-pointEnd)"/><path d="M1111.31,767.5L1116.19,767.5C1121.07,767.5,1130.831,767.5,1144.291,767.5C1157.75,767.5,1174.909,767.5,1183.488,767.5L1192.068,767.5" id="L_REMOVED_OFF_0" class="edge-thickness-normal edge-pattern-solid edge-thickness-normal edge-pattern-solid flowchart-link" style=";" data-edge="true" data-et="edge" data-id="L_REMOVED_OFF_0" data-points="W3sieCI6MTExMS4zMTAwNTg1OTM3NSwieSI6NzY3LjV9LHsieCI6MTE0MC41OTEzMDg1OTM3NSwieSI6NzY3LjV9LHsieCI6MTE5Ni4wNjc4NzEwOTM3NSwieSI6NzY3LjV9XQ==" marker-end="url(#my-svg_flowchart-v2-pointEnd)"/><path d="M1426.162,193.5L1431.567,193.5C1436.972,193.5,1447.781,193.5,1457.353,193.5C1466.925,193.5,1475.258,193.5,1479.425,193.5L1483.591,193.5" id="L_README_PR_0" class="edge-thickness-normal edge-pattern-solid edge-thickness-normal edge-pattern-solid flowchart-link" style=";" data-edge="true" data-et="edge" data-id="L_README_PR_0" data-points="W3sieCI6MTQyNi4xNjE2MjEwOTM3NSwieSI6MTkzLjV9LHsieCI6MTQ1OC41OTEzMDg1OTM3NSwieSI6MTkzLjV9LHsieCI6MTQ4Ny41OTEzMDg1OTM3NSwieSI6MTkzLjV9XQ==" marker-end="url(#my-svg_flowchart-v2-pointEnd)"/><path d="M1628.841,170.734L1641.303,165.945C1653.766,161.156,1678.69,151.578,1699.154,146.789C1719.617,142,1735.62,142,1743.621,142L1751.623,142" id="L_PR_UPDATE_0" class="edge-thickness-normal edge-pattern-solid edge-thickness-normal edge-pattern-solid flowchart-link" style=";" data-edge="true" data-et="edge" data-id="L_PR_UPDATE_0" data-points="W3sieCI6MTYyOC44NDExODM1NzI2OTM4LCJ5IjoxNzAuNzM0MjQ5OTc4OTQzOH0seyJ4IjoxNzAzLjYxNDc0NjA5Mzc1LCJ5IjoxNDJ9LHsieCI6MTc1NS42MjI1NTg1OTM3NSwieSI6MTQyfV0=" marker-end="url(#my-svg_flowchart-v2-pointEnd)"/><path d="M1628.841,216.266L1641.303,221.055C1653.766,225.844,1678.69,235.422,1702.154,240.211C1725.617,245,1747.62,245,1758.621,245L1769.623,245" id="L_PR_CREATE_0" class="edge-thickness-normal edge-pattern-solid edge-thickness-normal edge-pattern-solid flowchart-link" style=";" data-edge="true" data-et="edge" data-id="L_PR_CREATE_0" data-points="W3sieCI6MTYyOC44NDExODM1NzI2OTM4LCJ5IjoyMTYuMjY1NzUwMDIxMDU2Mn0seyJ4IjoxNzAzLjYxNDc0NjA5Mzc1LCJ5IjoyNDV9LHsieCI6MTc3My42MjI1NTg1OTM3NSwieSI6MjQ1fV0=" marker-end="url(#my-svg_flowchart-v2-pointEnd)"/><path d="M1958.638,142L1963.472,142C1968.305,142,1977.972,142,1991.603,145.744C2005.235,149.487,2022.832,156.975,2031.631,160.718L2040.43,164.462" id="L_UPDATE_GATE_0" class="edge-thickness-normal edge-pattern-solid edge-thickness-normal edge-pattern-solid flowchart-link" style=";" data-edge="true" data-et="edge" data-id="L_UPDATE_GATE_0" data-points="W3sieCI6MTk1OC42MzgxODM1OTM3NSwieSI6MTQyfSx7IngiOjE5ODcuNjM4MTgzNTkzNzUsInkiOjE0Mn0seyJ4IjoyMDQ0LjExMDI5MTM1OTIwMTcsInkiOjE2Ni4wMjc4OTIyMzQ1NDgzNX1d" marker-end="url(#my-svg_flowchart-v2-pointEnd)"/><path d="M1940.638,245L1948.472,245C1956.305,245,1971.972,245,1988.603,241.256C2005.235,237.513,2022.832,230.025,2031.631,226.282L2040.43,222.538" id="L_CREATE_GATE_0" class="edge-thickness-normal edge-pattern-solid edge-thickness-normal edge-pattern-solid flowchart-link" style=";" data-edge="true" data-et="edge" data-id="L_CREATE_GATE_0" data-points="W3sieCI6MTk0MC42MzgxODM1OTM3NSwieSI6MjQ1fSx7IngiOjE5ODcuNjM4MTgzNTkzNzUsInkiOjI0NX0seyJ4IjoyMDQ0LjExMDI5MTM1OTIwMTcsInkiOjIyMC45NzIxMDc3NjU0NTE2NX1d" marker-end="url(#my-svg_flowchart-v2-pointEnd)"/><path d="M2175.971,168.755L2188.098,164.296C2200.225,159.837,2224.478,150.918,2243.941,146.459C2263.404,142,2278.076,142,2285.412,142L2292.748,142" id="L_GATE_MERGE_0" class="edge-thickness-normal edge-pattern-solid edge-thickness-normal edge-pattern-solid flowchart-link" style=";" data-edge="true" data-et="edge" data-id="L_GATE_MERGE_0" data-points="W3sieCI6MjE3NS45NzEzNTU3MDAwNzU1LCJ5IjoxNjguNzU1MDQ3MTA2MzI1NzJ9LHsieCI6MjI0OC43MzE5MzM1OTM3NSwieSI6MTQyfSx7IngiOjIyOTYuNzQ3NTU4NTkzNzUsInkiOjE0Mn1d" marker-end="url(#my-svg_flowchart-v2-pointEnd)"/><path d="M2175.971,218.245L2188.098,222.704C2200.225,227.163,2224.478,236.082,2245.195,240.541C2265.912,245,2283.091,245,2291.681,245L2300.271,245" id="L_GATE_HOLD_0" class="edge-thickness-normal edge-pattern-solid edge-thickness-normal edge-pattern-solid flowchart-link" style=";" data-edge="true" data-et="edge" data-id="L_GATE_HOLD_0" data-points="W3sieCI6MjE3NS45NzEzNTU3MDAwNzU1LCJ5IjoyMTguMjQ0OTUyODkzNjc0Mjh9LHsieCI6MjI0OC43MzE5MzM1OTM3NSwieSI6MjQ1fSx7IngiOjIzMDQuMjcwOTk2MDkzNzUsInkiOjI0NX1d" marker-end="url(#my-svg_flowchart-v2-pointEnd)"/></g><g class="edgeLabels"><g class="edgeLabel"><g class="label" data-id="L_TRIGGER_APP_0" transform="translate(0, 0)"><foreignObject width="0" height="0"><div xmlns="http://www.w3.org/1999/xhtml" class="labelBkg" style="display: table-cell; white-space: nowrap; line-height: 1.5; max-width: 200px; text-align: center;"><span class="edgeLabel"></span></div></foreignObject></g></g><g class="edgeLabel"><g class="label" data-id="L_APP_INV_0" transform="translate(0, 0)"><foreignObject width="0" height="0"><div xmlns="http://www.w3.org/1999/xhtml" class="labelBkg" style="display: table-cell; white-space: nowrap; line-height: 1.5; max-width: 200px; text-align: center;"><span class="edgeLabel"></span></div></foreignObject></g></g><g class="edgeLabel"><g class="label" data-id="L_INV_SOURCE_0" transform="translate(0, 0)"><foreignObject width="0" height="0"><div xmlns="http://www.w3.org/1999/xhtml" class="labelBkg" style="display: table-cell; white-space: nowrap; line-height: 1.5; max-width: 200px; text-align: center;"><span class="edgeLabel"></span></div></foreignObject></g></g><g class="edgeLabel"><g class="label" data-id="L_INV_MANAGED_0" transform="translate(0, 0)"><foreignObject width="0" height="0"><div xmlns="http://www.w3.org/1999/xhtml" class="labelBkg" style="display: table-cell; white-space: nowrap; line-height: 1.5; max-width: 200px; text-align: center;"><span class="edgeLabel"></span></div></foreignObject></g></g><g class="edgeLabel"><g class="label" data-id="L_INV_REMOVED_0" transform="translate(0, 0)"><foreignObject width="0" height="0"><div xmlns="http://www.w3.org/1999/xhtml" class="labelBkg" style="display: table-cell; white-space: nowrap; line-height: 1.5; max-width: 200px; text-align: center;"><span class="edgeLabel"></span></div></foreignObject></g></g><g class="edgeLabel"><g class="label" data-id="L_SOURCE_SRC_CHECKS_0" transform="translate(0, 0)"><foreignObject width="0" height="0"><div xmlns="http://www.w3.org/1999/xhtml" class="labelBkg" style="display: table-cell; white-space: nowrap; line-height: 1.5; max-width: 200px; text-align: center;"><span class="edgeLabel"></span></div></foreignObject></g></g><g class="edgeLabel"><g class="label" data-id="L_MANAGED_README_0" transform="translate(0, 0)"><foreignObject width="0" height="0"><div xmlns="http://www.w3.org/1999/xhtml" class="labelBkg" style="display: table-cell; white-space: nowrap; line-height: 1.5; max-width: 200px; text-align: center;"><span class="edgeLabel"></span></div></foreignObject></g></g><g class="edgeLabel"><g class="label" data-id="L_MANAGED_CHECKS_0" transform="translate(0, 0)"><foreignObject width="0" height="0"><div xmlns="http://www.w3.org/1999/xhtml" class="labelBkg" style="display: table-cell; white-space: nowrap; line-height: 1.5; max-width: 200px; text-align: center;"><span class="edgeLabel"></span></div></foreignObject></g></g><g class="edgeLabel"><g class="label" data-id="L_MANAGED_ISSUES_0" transform="translate(0, 0)"><foreignObject width="0" height="0"><div xmlns="http://www.w3.org/1999/xhtml" class="labelBkg" style="display: table-cell; white-space: nowrap; line-height: 1.5; max-width: 200px; text-align: center;"><span class="edgeLabel"></span></div></foreignObject></g></g><g class="edgeLabel"><g class="label" data-id="L_MANAGED_POLICY_0" transform="translate(0, 0)"><foreignObject width="0" height="0"><div xmlns="http://www.w3.org/1999/xhtml" class="labelBkg" style="display: table-cell; white-space: nowrap; line-height: 1.5; max-width: 200px; text-align: center;"><span class="edgeLabel"></span></div></foreignObject></g></g><g class="edgeLabel"><g class="label" data-id="L_REMOVED_OFF_0" transform="translate(0, 0)"><foreignObject width="0" height="0"><div xmlns="http://www.w3.org/1999/xhtml" class="labelBkg" style="display: table-cell; white-space: nowrap; line-height: 1.5; max-width: 200px; text-align: center;"><span class="edgeLabel"></span></div></foreignObject></g></g><g class="edgeLabel"><g class="label" data-id="L_README_PR_0" transform="translate(0, 0)"><foreignObject width="0" height="0"><div xmlns="http://www.w3.org/1999/xhtml" class="labelBkg" style="display: table-cell; white-space: nowrap; line-height: 1.5; max-width: 200px; text-align: center;"><span class="edgeLabel"></span></div></foreignObject></g></g><g class="edgeLabel" transform="translate(1703.61474609375, 142)"><g class="label" data-id="L_PR_UPDATE_0" transform="translate(-23.0078125, -13.5)"><foreignObject width="46.015625" height="27"><div xmlns="http://www.w3.org/1999/xhtml" class="labelBkg" style="display: table-cell; white-space: nowrap; line-height: 1.5; max-width: 200px; text-align: center;"><span class="edgeLabel"><p>exists</p></span></div></foreignObject></g></g><g class="edgeLabel" transform="translate(1703.61474609375, 245)"><g class="label" data-id="L_PR_CREATE_0" transform="translate(-16.515625, -13.5)"><foreignObject width="33.03125" height="27"><div xmlns="http://www.w3.org/1999/xhtml" class="labelBkg" style="display: table-cell; white-space: nowrap; line-height: 1.5; max-width: 200px; text-align: center;"><span class="edgeLabel"><p>new</p></span></div></foreignObject></g></g><g class="edgeLabel"><g class="label" data-id="L_UPDATE_GATE_0" transform="translate(0, 0)"><foreignObject width="0" height="0"><div xmlns="http://www.w3.org/1999/xhtml" class="labelBkg" style="display: table-cell; white-space: nowrap; line-height: 1.5; max-width: 200px; text-align: center;"><span class="edgeLabel"></span></div></foreignObject></g></g><g class="edgeLabel"><g class="label" data-id="L_CREATE_GATE_0" transform="translate(0, 0)"><foreignObject width="0" height="0"><div xmlns="http://www.w3.org/1999/xhtml" class="labelBkg" style="display: table-cell; white-space: nowrap; line-height: 1.5; max-width: 200px; text-align: center;"><span class="edgeLabel"></span></div></foreignObject></g></g><g class="edgeLabel" transform="translate(2248.73193359375, 142)"><g class="label" data-id="L_GATE_MERGE_0" transform="translate(-19.015625, -13.5)"><foreignObject width="38.03125" height="27"><div xmlns="http://www.w3.org/1999/xhtml" class="labelBkg" style="display: table-cell; white-space: nowrap; line-height: 1.5; max-width: 200px; text-align: center;"><span class="edgeLabel"><p>pass</p></span></div></foreignObject></g></g><g class="edgeLabel" transform="translate(2248.73193359375, 245)"><g class="label" data-id="L_GATE_HOLD_0" transform="translate(-11.5078125, -13.5)"><foreignObject width="23.015625" height="27"><div xmlns="http://www.w3.org/1999/xhtml" class="labelBkg" style="display: table-cell; white-space: nowrap; line-height: 1.5; max-width: 200px; text-align: center;"><span class="edgeLabel"><p>fail</p></span></div></foreignObject></g></g></g><g class="nodes"><g class="node default action" id="flowchart-TRIGGER-0" transform="translate(127.475341796875, 408.75)"><g class="basic label-container outer-path"><path d="M-71.5 -48 C-33.95100158129597 -48, 3.5979968374080613 -48, 71.5 -48 C71.5 -48, 71.5 -48, 71.5 -48 C72.4521196943561 -47.96946737459056, 73.40423938871218 -47.938934749181115, 74.57537055907422 -47.901378852016144 C75.75981249956537 -47.78711716251681, 76.94425444005651 -47.67285547301747, 77.63810376085628 -47.60592066351582 C78.78901478759107 -47.41985029416165, 79.93992581432587 -47.233779924807486, 80.67561417766586 -47.11483953557114 C81.5219711698002 -46.921664075112005, 82.36832816193453 -46.72848861465287, 83.67542002765634 -46.430153425873414 C84.61814349664427 -46.15035804873426, 85.5608669656322 -45.87056267159512, 86.62519446513379 -45.55467585651209 C87.4998211114892 -45.23280516569321, 88.37444775784462 -44.91093447487433, 89.51281623420996 -44.492004352609044 C90.37203757203335 -44.111652554250036, 91.23125890985673 -43.73130075589102, 92.32641947764279 -43.24650565931612 C93.22099285743325 -42.77980730008104, 94.11556623722369 -42.31310894084596, 95.05444249618901 -41.8232977979227 C95.76031695823013 -41.39539255085459, 96.46619142027126 -40.96748730378648, 97.68567525810633 -40.22822903480835 C98.32405385722073 -39.782923759030304, 98.96243245633514 -39.33761848325226, 100.20930546357837 -38.46785384966192 C100.97991266643697 -37.85331511210108, 101.75051986929559 -37.23877637454023, 102.61496297477383 -36.54940600171846 C103.11449036695404 -36.095748440910924, 103.61401775913427 -35.64209088010339, 104.89276242896734 -34.480768804690925 C105.44884582501693 -33.90656704297384, 106.00492922106652 -33.332365281256756, 107.03334385961514 -32.270442732543216 C107.43587935489148 -31.797601634873075, 107.83841485016782 -31.324760537202938, 109.02791115846543 -29.927510489219213 C109.53565527492061 -29.247179629609857, 110.0433993913758 -28.5668487700005, 110.86826822065387 -27.461599685864154 C111.23619120465969 -26.89637118127654, 111.60411418866552 -26.331142676688927, 112.54685262425662 -24.882843278905206 C112.8970545872255 -24.26102423185986, 113.24725655019438 -23.639205184814518, 114.05676670590401 -22.201837931560092 C114.36740859919715 -21.556783393465164, 114.67805049249027 -20.91172885537023, 115.391805904759 -19.429600469874913 C115.7747082723429 -18.483824219028982, 116.15761063992683 -17.53804796818305, 116.54648425838849 -16.57752261222279 C116.8485688465235 -15.667691963402993, 117.15065343465851 -14.757861314583197, 117.51605694575971 -13.65732415828957 C117.68058128135667 -13.029921561360322, 117.8451056169536 -12.402518964431072, 118.29653978472754 -10.681004829903095 C118.47741955225537 -9.752225452600094, 118.6582993197832 -8.823446075297092, 118.8847256038936 -7.660794961602221 C119.02026772758121 -6.609557016100849, 119.15580985126883 -5.558319070599477, 119.27819742156152 -4.609105243568733 C119.33820431832024 -3.6744493898564654, 119.39821121507894 -2.7397935361441985, 119.47533837763302 -1.538475723439448 C119.47533837763302 -0.6801319480528509, 119.47533837763302 0.17821182733374608, 119.47533837763302 1.5384757234394364 C119.42057219108831 2.391503285343356, 119.3658060045436 3.244530847247276, 119.27819742156152 4.609105243568701 C119.12800005099486 5.7740063898581635, 118.97780268042818 6.938907536147627, 118.8847256038936 7.660794961602187 C118.7261548841417 8.475022093594683, 118.56758416438981 9.289249225587179, 118.29653978472754 10.681004829903085 C118.02281768369265 11.724825833058139, 117.74909558265776 12.768646836213193, 117.51605694575971 13.657324158289539 C117.18492797217462 14.654631868490608, 116.85379899858953 15.651939578691676, 116.5464842583885 16.577522612222758 C116.20737055748096 17.415140009781787, 115.86825685657341 18.252757407340816, 115.391805904759 19.429600469874902 C115.10810899181686 20.018703179740772, 114.82441207887472 20.607805889606645, 114.05676670590401 22.201837931560082 C113.57396868865065 23.05909469979396, 113.0911706713973 23.916351468027834, 112.54685262425662 24.8828432789052 C112.0705690175406 25.614542798877096, 111.59428541082458 26.346242318848997, 110.86826822065389 27.46159968586413 C110.33764993910364 28.17257984282156, 109.8070316575534 28.88355999977899, 109.02791115846543 29.927510489219202 C108.40680675696802 30.65709506105969, 107.78570235547062 31.386679632900176, 107.03334385961516 32.27044273254319 C106.60406685288508 32.713706486289695, 106.17478984615502 33.1569702400362, 104.89276242896736 34.48076880469091 C104.30915119083696 35.01078908965375, 103.72553995270657 35.54080937461658, 102.61496297477387 36.549406001718424 C102.10398474462214 36.956897542562665, 101.59300651447039 37.36438908340691, 100.20930546357837 38.467853849661914 C99.69652311085636 38.82554862093051, 99.18374075813435 39.18324339219911, 97.68567525810636 40.22822903480834 C96.76545120049964 40.786074266366356, 95.84522714289292 41.34391949792437, 95.05444249618901 41.82329779792269 C94.3040203308147 42.214792560930135, 93.55359816544039 42.60628732393757, 92.3264194776428 43.246505659316114 C91.4708933010853 43.62522171939578, 90.61536712452781 44.00393777947545, 89.51281623420998 44.49200435260904 C88.69649508682996 44.79241808083486, 87.88017393944992 45.09283180906067, 86.62519446513383 45.554675856512084 C85.60131595377014 45.85855762423685, 84.57743744240643 46.16243939196162, 83.6754200276564 46.4301534258734 C82.66147494483242 46.66157977441796, 81.64752986200844 46.89300612296251, 80.67561417766589 47.114839535571136 C80.00827904089836 47.22272910522243, 79.34094390413084 47.330618674873726, 77.63810376085631 47.60592066351581 C76.99921809204976 47.667553195613145, 76.3603324232432 47.72918572771048, 74.57537055907422 47.901378852016144 C73.66339030012765 47.93062428385867, 72.75141004118107 47.9598697157012, 71.50000000000001 48 C71.50000000000001 48, 71.5 48, 71.5 48 C15.332255488622472 48, -40.835489022755056 48, -71.49999999999999 48 C-72.36335002192739 47.972314045205664, -73.22670004385479 47.94462809041132, -74.5753705590742 47.901378852016144 C-75.5010636086846 47.812078356829005, -76.426756658295 47.72277786164186, -77.6381037608563 47.60592066351581 C-78.5852093361305 47.45279997901891, -79.53231491140471 47.29967929452201, -80.67561417766586 47.114839535571136 C-81.72406628926001 46.875537182889204, -82.77251840085414 46.636234830207265, -83.67542002765634 46.430153425873414 C-84.32230482672372 46.23816141307782, -84.9691896257911 46.04616940028222, -86.62519446513377 45.554675856512105 C-87.40731766731109 45.26684728824323, -88.18944086948842 44.97901871997434, -89.51281623420996 44.492004352609044 C-90.11627495735857 44.22487107683816, -90.71973368050716 43.957737801067275, -92.32641947764279 43.24650565931613 C-92.96576308162956 42.91296051063535, -93.60510668561633 42.579415361954574, -95.054442496189 41.823297797922706 C-95.62158672996554 41.4794916304979, -96.18873096374209 41.13568546307309, -97.6856752581063 40.22822903480837 C-98.53996093492282 39.63231632809209, -99.39424661173933 39.0364036213758, -100.20930546357836 38.46785384966192 C-101.09934238011388 37.7580730936019, -101.9893792966494 37.048292337541874, -102.61496297477383 36.54940600171847 C-103.46796974285367 35.774727824270684, -104.3209765109335 35.0000496468229, -104.89276242896733 34.480768804690946 C-105.50528060020913 33.84829350420668, -106.11779877145094 33.215818203722414, -107.03334385961514 32.2704427325432 C-107.81014563876413 31.35796716148142, -108.5869474179131 30.445491590419635, -109.02791115846543 29.927510489219216 C-109.41623187639517 29.40719610393854, -109.8045525943249 28.88688171865786, -110.86826822065387 27.461599685864158 C-111.39715044661708 26.649094562021652, -111.92603267258029 25.836589438179146, -112.54685262425659 24.882843278905227 C-113.00756604900367 24.064799940973728, -113.46827947375075 23.246756603042225, -114.056766705904 22.2018379315601 C-114.46313547077513 21.35800449640651, -114.86950423564627 20.514171061252924, -115.391805904759 19.42960046987492 C-115.80473370962302 18.40966080844477, -116.21766151448705 17.389721147014622, -116.54648425838849 16.577522612222793 C-116.75503739330694 15.949393798277992, -116.96359052822537 15.32126498433319, -117.51605694575971 13.657324158289558 C-117.720281391159 12.878527836547521, -117.9245058365583 12.099731514805486, -118.29653978472753 10.681004829903102 C-118.52107749091688 9.528051164681772, -118.74561519710623 8.375097499460441, -118.8847256038936 7.660794961602226 C-119.01459609516998 6.653545077091887, -119.14446658644636 5.646295192581547, -119.27819742156152 4.60910524356876 C-119.33543965321628 3.7175112804479014, -119.39268188487107 2.8259173173270424, -119.47533837763302 1.538475723439454 C-119.47533837763302 0.7954041593506743, -119.47533837763302 0.05233259526189471, -119.47533837763302 -1.5384757234394306 C-119.41772863170121 -2.435794018077241, -119.36011888576941 -3.333112312715052, -119.27819742156152 -4.6091052435686946 C-119.17146221709318 -5.436922412175, -119.06472701262484 -6.264739580781305, -118.8847256038936 -7.660794961602203 C-118.7083316579195 -8.566540593305515, -118.53193771194542 -9.472286225008828, -118.29653978472754 -10.681004829903081 C-117.98729044228887 -11.860306602134589, -117.67804109985019 -13.039608374366095, -117.51605694575971 -13.657324158289534 C-117.25084880039455 -14.456088836949817, -116.98564065502939 -15.254853515610101, -116.54648425838852 -16.577522612222733 C-116.14152036650367 -17.57779125462253, -115.73655647461881 -18.578059897022328, -115.391805904759 -19.429600469874895 C-114.87501310626386 -20.502731773544546, -114.35822030776872 -21.575863077214198, -114.05676670590401 -22.20183793156008 C-113.6079815032307 -22.99870150333612, -113.15919630055741 -23.795565075112165, -112.54685262425662 -24.882843278905213 C-112.00375176988275 -25.71719203422281, -111.46065091550888 -26.551540789540404, -110.86826822065387 -27.461599685864144 C-110.17340313079254 -28.392655602766375, -109.47853804093121 -29.323711519668603, -109.02791115846544 -29.927510489219202 C-108.27827535171132 -30.808075363318384, -107.52863954495719 -31.688640237417566, -107.03334385961517 -32.27044273254319 C-106.59253066001439 -32.72561855256775, -106.15171746041361 -33.18079437259232, -104.89276242896737 -34.480768804690896 C-104.28958105734557 -35.02856216709328, -103.68639968572376 -35.57635552949565, -102.61496297477387 -36.549406001718424 C-102.12541818227744 -36.93980494640028, -101.63587338978103 -37.33020389108214, -100.20930546357837 -38.46785384966191 C-99.45838500393586 -38.99166345548575, -98.70746454429334 -39.51547306130959, -97.68567525810636 -40.22822903480834 C-96.6475139104202 -40.857568544688945, -95.60935256273406 -41.48690805456956, -95.05444249618901 -41.823297797922685 C-93.97388210738329 -42.387025460630674, -92.89332171857757 -42.95075312333866, -92.3264194776428 -43.246505659316114 C-91.38757581082824 -43.66210390080705, -90.44873214401366 -44.07770214229799, -89.51281623420998 -44.49200435260903 C-88.78058517285571 -44.761472151857134, -88.04835411150144 -45.03093995110524, -86.62519446513383 -45.554675856512084 C-85.88506152651523 -45.774343427657016, -85.14492858789662 -45.99401099880194, -83.6754200276564 -46.4301534258734 C-82.84421573676487 -46.619870381154485, -82.01301144587332 -46.80958733643557, -80.67561417766589 -47.11483953557113 C-79.54587810598687 -47.29748650240611, -78.41614203430784 -47.480133469241096, -77.63810376085632 -47.60592066351581 C-76.9599618812447 -47.67134019505701, -76.28182000163306 -47.73675972659821, -74.57537055907422 -47.901378852016144 C-73.78313252695429 -47.92678438370845, -72.99089449483436 -47.95218991540075, -71.50000000000001 -48 C-71.50000000000001 -48, -71.50000000000001 -48, -71.5 -48" stroke="none" stroke-width="0" fill="#f8fafc" style="fill:#f8fafc !important;stroke:#64748b !important;stroke-width:1.5px !important"/><path d="M-71.5 -48 C-41.33649077416557 -48, -11.172981548331144 -48, 71.5 -48 M-71.5 -48 C-30.159921651087288 -48, 11.180156697825424 -48, 71.5 -48 M71.5 -48 C71.5 -48, 71.5 -48, 71.5 -48 M71.5 -48 C71.5 -48, 71.5 -48, 71.5 -48 M71.5 -48 C72.23872562868866 -47.97631050693016, 72.97745125737731 -47.95262101386032, 74.57537055907422 -47.901378852016144 M71.5 -48 C72.35898075957883 -47.97245415894493, 73.21796151915764 -47.944908317889855, 74.57537055907422 -47.901378852016144 M74.57537055907422 -47.901378852016144 C75.56659982803876 -47.805756156566744, 76.5578290970033 -47.710133461117344, 77.63810376085628 -47.60592066351582 M74.57537055907422 -47.901378852016144 C75.43755737512404 -47.818204726803174, 76.29974419117387 -47.7350306015902, 77.63810376085628 -47.60592066351582 M77.63810376085628 -47.60592066351582 C78.3554854535991 -47.48993995481128, 79.0728671463419 -47.373959246106736, 80.67561417766586 -47.11483953557114 M77.63810376085628 -47.60592066351582 C78.63383543236148 -47.4449384888813, 79.62956710386668 -47.28395631424678, 80.67561417766586 -47.11483953557114 M80.67561417766586 -47.11483953557114 C81.47815624557855 -46.9316645456465, 82.28069831349123 -46.74848955572185, 83.67542002765634 -46.430153425873414 M80.67561417766586 -47.11483953557114 C81.34714976694461 -46.961565919497524, 82.01868535622334 -46.808292303423904, 83.67542002765634 -46.430153425873414 M83.67542002765634 -46.430153425873414 C84.41771627818305 -46.20984379510961, 85.16001252870977 -45.98953416434581, 86.62519446513379 -45.55467585651209 M83.67542002765634 -46.430153425873414 C84.65919983500561 -46.13817274301773, 85.64297964235489 -45.84619206016205, 86.62519446513379 -45.55467585651209 M86.62519446513379 -45.55467585651209 C87.61784288706797 -45.18937206129889, 88.61049130900214 -44.82406826608569, 89.51281623420996 -44.492004352609044 M86.62519446513379 -45.55467585651209 C87.3025417971647 -45.30540577699462, 87.97988912919561 -45.056135697477146, 89.51281623420996 -44.492004352609044 M89.51281623420996 -44.492004352609044 C90.20741470644846 -44.18452621348066, 90.90201317868696 -43.87704807435228, 92.32641947764279 -43.24650565931612 M89.51281623420996 -44.492004352609044 C90.54061732844306 -44.03702729682825, 91.56841842267616 -43.582050241047455, 92.32641947764279 -43.24650565931612 M92.32641947764279 -43.24650565931612 C93.2551854181431 -42.761969063060086, 94.18395135864343 -42.27743246680404, 95.05444249618901 -41.8232977979227 M92.32641947764279 -43.24650565931612 C93.20307960807233 -42.78915263079865, 94.07973973850186 -42.33179960228117, 95.05444249618901 -41.8232977979227 M95.05444249618901 -41.8232977979227 C95.79847570593172 -41.372260493752194, 96.54250891567443 -40.92122318958168, 97.68567525810633 -40.22822903480835 M95.05444249618901 -41.8232977979227 C95.72240937384497 -41.41837235127857, 96.39037625150091 -41.01344690463444, 97.68567525810633 -40.22822903480835 M97.68567525810633 -40.22822903480835 C98.60713261952372 -39.585460268729854, 99.52858998094112 -38.942691502651364, 100.20930546357837 -38.46785384966192 M97.68567525810633 -40.22822903480835 C98.2243546853658 -39.85246958540871, 98.76303411262528 -39.47671013600908, 100.20930546357837 -38.46785384966192 M100.20930546357837 -38.46785384966192 C101.1697988852288 -37.70188590569909, 102.13029230687923 -36.935917961736266, 102.61496297477383 -36.54940600171846 M100.20930546357837 -38.46785384966192 C100.99662584771006 -37.839986794792225, 101.78394623184175 -37.21211973992253, 102.61496297477383 -36.54940600171846 M102.61496297477383 -36.54940600171846 C103.37702086526426 -35.85732518852193, 104.1390787557547 -35.165244375325415, 104.89276242896734 -34.480768804690925 M102.61496297477383 -36.54940600171846 C103.45813000455612 -35.783664014247286, 104.30129703433843 -35.01792202677612, 104.89276242896734 -34.480768804690925 M104.89276242896734 -34.480768804690925 C105.33847506451839 -34.02053391479655, 105.78418770006942 -33.56029902490217, 107.03334385961514 -32.270442732543216 M104.89276242896734 -34.480768804690925 C105.69832415256026 -33.64896018723375, 106.50388587615316 -32.81715156977657, 107.03334385961514 -32.270442732543216 M107.03334385961514 -32.270442732543216 C107.52551288274827 -31.69231299276027, 108.0176819058814 -31.114183252977327, 109.02791115846543 -29.927510489219213 M107.03334385961514 -32.270442732543216 C107.43989426020973 -31.79288549863168, 107.84644466080432 -31.31532826472014, 109.02791115846543 -29.927510489219213 M109.02791115846543 -29.927510489219213 C109.6165370739856 -29.138805387346263, 110.20516298950577 -28.350100285473314, 110.86826822065387 -27.461599685864154 M109.02791115846543 -29.927510489219213 C109.57422221685907 -29.195503440933017, 110.12053327525271 -28.463496392646825, 110.86826822065387 -27.461599685864154 M110.86826822065387 -27.461599685864154 C111.39846176519336 -26.64708002455015, 111.92865530973285 -25.832560363236144, 112.54685262425662 -24.882843278905206 M110.86826822065387 -27.461599685864154 C111.35591697578606 -26.712440245955364, 111.84356573091823 -25.96328080604657, 112.54685262425662 -24.882843278905206 M112.54685262425662 -24.882843278905206 C112.91603982527015 -24.22731401924778, 113.28522702628366 -23.571784759590354, 114.05676670590401 -22.201837931560092 M112.54685262425662 -24.882843278905206 C112.85438150000728 -24.336794619334455, 113.16191037575794 -23.7907459597637, 114.05676670590401 -22.201837931560092 M114.05676670590401 -22.201837931560092 C114.36269861248473 -21.56656378165105, 114.66863051906546 -20.931289631742004, 115.391805904759 -19.429600469874913 M114.05676670590401 -22.201837931560092 C114.3395536332694 -21.614624826214918, 114.62234056063478 -21.027411720869743, 115.391805904759 -19.429600469874913 M115.391805904759 -19.429600469874913 C115.73435602139006 -18.583495059040224, 116.07690613802112 -17.737389648205532, 116.54648425838849 -16.57752261222279 M115.391805904759 -19.429600469874913 C115.6380088826465 -18.821474354481996, 115.88421186053402 -18.21334823908908, 116.54648425838849 -16.57752261222279 M116.54648425838849 -16.57752261222279 C116.86074763050124 -15.631011406487763, 117.17501100261399 -14.684500200752737, 117.51605694575971 -13.65732415828957 M116.54648425838849 -16.57752261222279 C116.90218032043927 -15.506222745797064, 117.25787638249005 -14.434922879371339, 117.51605694575971 -13.65732415828957 M117.51605694575971 -13.65732415828957 C117.7752568327618 -12.668882651208964, 118.0344567197639 -11.680441144128356, 118.29653978472754 -10.681004829903095 M117.51605694575971 -13.65732415828957 C117.80309194885726 -12.562735289721385, 118.0901269519548 -11.4681464211532, 118.29653978472754 -10.681004829903095 M118.29653978472754 -10.681004829903095 C118.4278883778254 -10.00655756488058, 118.55923697092325 -9.332110299858066, 118.8847256038936 -7.660794961602221 M118.29653978472754 -10.681004829903095 C118.52479850574727 -9.508944539964535, 118.753057226767 -8.336884250025975, 118.8847256038936 -7.660794961602221 M118.8847256038936 -7.660794961602221 C118.9665198082731 -7.026415264527402, 119.0483140126526 -6.392035567452582, 119.27819742156152 -4.609105243568733 M118.8847256038936 -7.660794961602221 C119.03003886040354 -6.533774039459284, 119.17535211691349 -5.406753117316347, 119.27819742156152 -4.609105243568733 M119.27819742156152 -4.609105243568733 C119.34245365182792 -3.608262590473938, 119.40670988209433 -2.6074199373791433, 119.47533837763302 -1.538475723439448 M119.27819742156152 -4.609105243568733 C119.3290480000429 -3.81706643787301, 119.37989857852429 -3.025027632177287, 119.47533837763302 -1.538475723439448 M119.47533837763302 -1.538475723439448 C119.47533837763302 -0.5506813618022651, 119.47533837763302 0.4371129998349177, 119.47533837763302 1.5384757234394364 M119.47533837763302 -1.538475723439448 C119.47533837763302 -0.855055280991989, 119.47533837763302 -0.1716348385445301, 119.47533837763302 1.5384757234394364 M119.47533837763302 1.5384757234394364 C119.40029664187546 2.7073113304623995, 119.32525490611789 3.8761469374853625, 119.27819742156152 4.609105243568701 M119.47533837763302 1.5384757234394364 C119.4272338807771 2.287742091221568, 119.37912938392115 3.037008459003699, 119.27819742156152 4.609105243568701 M119.27819742156152 4.609105243568701 C119.13888434653221 5.689589943017635, 118.99957127150292 6.770074642466569, 118.8847256038936 7.660794961602187 M119.27819742156152 4.609105243568701 C119.12385349731589 5.80616624136256, 118.96950957307025 7.00322723915642, 118.8847256038936 7.660794961602187 M118.8847256038936 7.660794961602187 C118.70247250753378 8.59662609220435, 118.52021941117395 9.532457222806512, 118.29653978472754 10.681004829903085 M118.8847256038936 7.660794961602187 C118.68040485401049 8.709938829046191, 118.47608410412738 9.759082696490196, 118.29653978472754 10.681004829903085 M118.29653978472754 10.681004829903085 C118.08746459216897 11.478299152890546, 117.87838939961041 12.275593475878008, 117.51605694575971 13.657324158289539 M118.29653978472754 10.681004829903085 C118.03017071335107 11.696785544147385, 117.7638016419746 12.712566258391686, 117.51605694575971 13.657324158289539 M117.51605694575971 13.657324158289539 C117.20865824157374 14.583160077965406, 116.90125953738779 15.508995997641273, 116.5464842583885 16.577522612222758 M117.51605694575971 13.657324158289539 C117.2562355868358 14.43986469445665, 116.99641422791187 15.222405230623764, 116.5464842583885 16.577522612222758 M116.5464842583885 16.577522612222758 C116.16231413382634 17.526430247315353, 115.7781440092642 18.475337882407953, 115.391805904759 19.429600469874902 M116.5464842583885 16.577522612222758 C116.31554148678174 17.14795572306621, 116.08459871517498 17.71838883390966, 115.391805904759 19.429600469874902 M115.391805904759 19.429600469874902 C114.88015611378844 20.492052208377036, 114.36850632281788 21.554503946879166, 114.05676670590401 22.201837931560082 M115.391805904759 19.429600469874902 C115.10253458535922 20.030278554023244, 114.81326326595945 20.630956638171586, 114.05676670590401 22.201837931560082 M114.05676670590401 22.201837931560082 C113.5834115089266 23.042328016204777, 113.1100563119492 23.882818100849473, 112.54685262425662 24.8828432789052 M114.05676670590401 22.201837931560082 C113.56364336697435 23.07742835398244, 113.07052002804468 23.9530187764048, 112.54685262425662 24.8828432789052 M112.54685262425662 24.8828432789052 C112.20735736619567 25.40439916252823, 111.86786210813472 25.925955046151255, 110.86826822065389 27.46159968586413 M112.54685262425662 24.8828432789052 C112.08625571775593 25.59044381487754, 111.62565881125525 26.298044350849878, 110.86826822065389 27.46159968586413 M110.86826822065389 27.46159968586413 C110.39615809114368 28.094184249290215, 109.92404796163346 28.726768812716305, 109.02791115846543 29.927510489219202 M110.86826822065389 27.46159968586413 C110.1690174892751 28.398531962859572, 109.46976675789632 29.335464239855014, 109.02791115846543 29.927510489219202 M109.02791115846543 29.927510489219202 C108.38931516890084 30.677641675702965, 107.75071917933624 31.42777286218673, 107.03334385961516 32.27044273254319 M109.02791115846543 29.927510489219202 C108.23062988116303 30.86404244412847, 107.43334860386062 31.800574399037732, 107.03334385961516 32.27044273254319 M107.03334385961516 32.27044273254319 C106.19241533657029 33.13877047410275, 105.35148681352544 34.0070982156623, 104.89276242896736 34.48076880469091 M107.03334385961516 32.27044273254319 C106.37852224974695 32.946599806586114, 105.72370063987876 33.622756880629034, 104.89276242896736 34.48076880469091 M104.89276242896736 34.48076880469091 C104.09477931574277 35.20547595464529, 103.29679620251818 35.930183104599664, 102.61496297477387 36.549406001718424 M104.89276242896736 34.48076880469091 C104.40750629852243 34.92146558318734, 103.92225016807751 35.36216236168378, 102.61496297477387 36.549406001718424 M102.61496297477387 36.549406001718424 C101.90517779324767 37.11544079580864, 101.19539261172147 37.68147558989885, 100.20930546357837 38.467853849661914 M102.61496297477387 36.549406001718424 C102.01335511213536 37.029172262715065, 101.41174724949684 37.508938523711706, 100.20930546357837 38.467853849661914 M100.20930546357837 38.467853849661914 C99.22847500261584 39.15203871976305, 98.2476445416533 39.83622358986418, 97.68567525810636 40.22822903480834 M100.20930546357837 38.467853849661914 C99.20361688087787 39.169378669396714, 98.19792829817736 39.87090348913151, 97.68567525810636 40.22822903480834 M97.68567525810636 40.22822903480834 C96.9958156060957 40.6464260099225, 96.30595595408506 41.06462298503667, 95.05444249618901 41.82329779792269 M97.68567525810636 40.22822903480834 C96.75951988597095 40.78966986408992, 95.83336451383553 41.3511106933715, 95.05444249618901 41.82329779792269 M95.05444249618901 41.82329779792269 C94.25683575365814 42.23940872460955, 93.45922901112726 42.6555196512964, 92.3264194776428 43.246505659316114 M95.05444249618901 41.82329779792269 C94.34242120878834 42.194758847488224, 93.63039992138766 42.566219897053756, 92.3264194776428 43.246505659316114 M92.3264194776428 43.246505659316114 C91.72288319965097 43.513673266315514, 91.11934692165913 43.78084087331492, 89.51281623420998 44.49200435260904 M92.3264194776428 43.246505659316114 C91.24592325045886 43.724809287308666, 90.16542702327492 44.20311291530122, 89.51281623420998 44.49200435260904 M89.51281623420998 44.49200435260904 C88.6219757976942 44.81984186808557, 87.73113536117842 45.1476793835621, 86.62519446513383 45.554675856512084 M89.51281623420998 44.49200435260904 C88.81746027660093 44.74790177280918, 88.12210431899186 45.00379919300932, 86.62519446513383 45.554675856512084 M86.62519446513383 45.554675856512084 C85.86090177200128 45.781513915979616, 85.09660907886872 46.00835197544714, 83.6754200276564 46.4301534258734 M86.62519446513383 45.554675856512084 C85.5955095913698 45.86028092211905, 84.56582471760576 46.16588598772602, 83.6754200276564 46.4301534258734 M83.6754200276564 46.4301534258734 C82.58353070299881 46.67937003898276, 81.49164137834123 46.92858665209213, 80.67561417766589 47.114839535571136 M83.6754200276564 46.4301534258734 C82.97694967238687 46.58957472651864, 82.27847931711733 46.748996027163884, 80.67561417766589 47.114839535571136 M80.67561417766589 47.114839535571136 C79.65731355800204 47.27947048271914, 78.6390129383382 47.44410142986714, 77.63810376085631 47.60592066351581 M80.67561417766589 47.114839535571136 C79.48768833352437 47.30689417354942, 78.29976248938287 47.49894881152771, 77.63810376085631 47.60592066351581 M77.63810376085631 47.60592066351581 C76.76387545309885 47.690256416951804, 75.88964714534137 47.774592170387805, 74.57537055907422 47.901378852016144 M77.63810376085631 47.60592066351581 C76.93575925065036 47.67367499372252, 76.23341474044442 47.74142932392923, 74.57537055907422 47.901378852016144 M74.57537055907422 47.901378852016144 C73.88599364111661 47.92348582798427, 73.19661672315901 47.94559280395241, 71.50000000000001 48 M74.57537055907422 47.901378852016144 C73.41715030651704 47.938520721176694, 72.25893005395986 47.975662590337244, 71.50000000000001 48 M71.50000000000001 48 C71.50000000000001 48, 71.5 48, 71.5 48 M71.50000000000001 48 C71.50000000000001 48, 71.5 48, 71.5 48 M71.5 48 C41.72121226044742 48, 11.942424520894846 48, -71.49999999999999 48 M71.5 48 C33.182393718073385 48, -5.13521256385323 48, -71.49999999999999 48 M-71.49999999999999 48 C-72.2203574366928 47.97689953909595, -72.94071487338559 47.953799078191906, -74.5753705590742 47.901378852016144 M-71.49999999999999 48 C-72.24483855576435 47.976114477256935, -72.98967711152872 47.95222895451387, -74.5753705590742 47.901378852016144 M-74.5753705590742 47.901378852016144 C-75.35848976782148 47.82583228378694, -76.14160897656876 47.75028571555773, -77.6381037608563 47.60592066351581 M-74.5753705590742 47.901378852016144 C-75.42295130081509 47.81961375722538, -76.27053204255596 47.73784866243462, -77.6381037608563 47.60592066351581 M-77.6381037608563 47.60592066351581 C-78.55274624116907 47.45804836045721, -79.46738872148185 47.310176057398614, -80.67561417766586 47.114839535571136 M-77.6381037608563 47.60592066351581 C-78.25974760228415 47.50541810815375, -78.881391443712 47.40491555279168, -80.67561417766586 47.114839535571136 M-80.67561417766586 47.114839535571136 C-81.70570027577887 46.87972910561683, -82.73578637389186 46.64461867566253, -83.67542002765634 46.430153425873414 M-80.67561417766586 47.114839535571136 C-81.3919502930522 46.95134049176421, -82.10828640843854 46.78784144795729, -83.67542002765634 46.430153425873414 M-83.67542002765634 46.430153425873414 C-84.66867814278162 46.135359631022475, -85.66193625790689 45.840565836171535, -86.62519446513377 45.554675856512105 M-83.67542002765634 46.430153425873414 C-84.76862222798172 46.10569675115229, -85.86182442830712 45.78124007643117, -86.62519446513377 45.554675856512105 M-86.62519446513377 45.554675856512105 C-87.6459968440885 45.17901114486301, -88.66679922304324 44.803346433213925, -89.51281623420996 44.492004352609044 M-86.62519446513377 45.554675856512105 C-87.3408394107685 45.291311901169166, -88.05648435640322 45.027947945826234, -89.51281623420996 44.492004352609044 M-89.51281623420996 44.492004352609044 C-90.51803483456584 44.04702389698181, -91.52325343492173 43.60204344135459, -92.32641947764279 43.24650565931613 M-89.51281623420996 44.492004352609044 C-90.52040002378372 44.04597689787591, -91.52798381335748 43.599949443142776, -92.32641947764279 43.24650565931613 M-92.32641947764279 43.24650565931613 C-92.93691918873328 42.92800835108394, -93.5474188998238 42.60951104285175, -95.054442496189 41.823297797922706 M-92.32641947764279 43.24650565931613 C-93.19218195958518 42.794837927034116, -94.05794444152757 42.343170194752105, -95.054442496189 41.823297797922706 M-95.054442496189 41.823297797922706 C-95.61037328902708 41.48628928429229, -96.16630408186516 41.14928077066187, -97.6856752581063 40.22822903480837 M-95.054442496189 41.823297797922706 C-95.6969476154471 41.433807418849256, -96.3394527347052 41.044317039775805, -97.6856752581063 40.22822903480837 M-97.6856752581063 40.22822903480837 C-98.5206535521046 39.64578432254293, -99.35563184610292 39.063339610277495, -100.20930546357836 38.46785384966192 M-97.6856752581063 40.22822903480837 C-98.4567398044245 39.690367786143035, -99.22780435074269 39.152506537477706, -100.20930546357836 38.46785384966192 M-100.20930546357836 38.46785384966192 C-101.12458028922389 37.73794653269563, -102.03985511486943 37.00803921572934, -102.61496297477383 36.54940600171847 M-100.20930546357836 38.46785384966192 C-101.16986100240965 37.70183636890038, -102.13041654124092 36.93581888813884, -102.61496297477383 36.54940600171847 M-102.61496297477383 36.54940600171847 C-103.31037189614452 35.91785401884141, -104.0057808175152 35.286302035964354, -104.89276242896733 34.480768804690946 M-102.61496297477383 36.54940600171847 C-103.42510191629148 35.81365925013392, -104.23524085780915 35.077912498549374, -104.89276242896733 34.480768804690946 M-104.89276242896733 34.480768804690946 C-105.64900556640214 33.69988567657323, -106.40524870383693 32.91900254845552, -107.03334385961514 32.2704427325432 M-104.89276242896733 34.480768804690946 C-105.45900852909976 33.8960732166348, -106.0252546292322 33.311377628578654, -107.03334385961514 32.2704427325432 M-107.03334385961514 32.2704427325432 C-107.76018867175425 31.416649457563153, -108.48703348389337 30.562856182583108, -109.02791115846543 29.927510489219216 M-107.03334385961514 32.2704427325432 C-107.65960298412898 31.534803129735568, -108.28586210864282 30.799163526927938, -109.02791115846543 29.927510489219216 M-109.02791115846543 29.927510489219216 C-109.60027434148604 29.160595967330256, -110.17263752450665 28.393681445441292, -110.86826822065387 27.461599685864158 M-109.02791115846543 29.927510489219216 C-109.54039092240534 29.240834293406692, -110.05287068634524 28.554158097594165, -110.86826822065387 27.461599685864158 M-110.86826822065387 27.461599685864158 C-111.49637981670826 26.49665160274484, -112.12449141276262 25.531703519625527, -112.54685262425659 24.882843278905227 M-110.86826822065387 27.461599685864158 C-111.51635674960532 26.465961669257354, -112.16444527855676 25.47032365265055, -112.54685262425659 24.882843278905227 M-112.54685262425659 24.882843278905227 C-112.98158898549804 24.110924847690896, -113.41632534673948 23.33900641647657, -114.056766705904 22.2018379315601 M-112.54685262425659 24.882843278905227 C-113.09357632571633 23.912079985185468, -113.64030002717607 22.94131669146571, -114.056766705904 22.2018379315601 M-114.056766705904 22.2018379315601 C-114.32863621009345 21.63729508903518, -114.60050571428292 21.07275224651026, -115.391805904759 19.42960046987492 M-114.056766705904 22.2018379315601 C-114.38021233412977 21.530196163921506, -114.70365796235555 20.85855439628291, -115.391805904759 19.42960046987492 M-115.391805904759 19.42960046987492 C-115.84816664111224 18.302380627947795, -116.30452737746549 17.175160786020665, -116.54648425838849 16.577522612222793 M-115.391805904759 19.42960046987492 C-115.64209379218823 18.811384548937607, -115.89238167961746 18.193168628000294, -116.54648425838849 16.577522612222793 M-116.54648425838849 16.577522612222793 C-116.75293125224204 15.955737159597453, -116.95937824609558 15.333951706972112, -117.51605694575971 13.657324158289558 M-116.54648425838849 16.577522612222793 C-116.76422039709416 15.92173605398379, -116.98195653579985 15.265949495744788, -117.51605694575971 13.657324158289558 M-117.51605694575971 13.657324158289558 C-117.69689103778968 12.967725391388045, -117.87772512981964 12.27812662448653, -118.29653978472753 10.681004829903102 M-117.51605694575971 13.657324158289558 C-117.81995229368522 12.498439487572657, -118.12384764161072 11.339554816855756, -118.29653978472753 10.681004829903102 M-118.29653978472753 10.681004829903102 C-118.51366884911712 9.566092974506569, -118.7307979135067 8.451181119110036, -118.8847256038936 7.660794961602226 M-118.29653978472753 10.681004829903102 C-118.47360749029295 9.771799585097492, -118.65067519585837 8.862594340291881, -118.8847256038936 7.660794961602226 M-118.8847256038936 7.660794961602226 C-118.9640024121316 7.045939691884787, -119.0432792203696 6.431084422167349, -119.27819742156152 4.60910524356876 M-118.8847256038936 7.660794961602226 C-119.0385602851578 6.467683551810875, -119.19239496642201 5.274572142019524, -119.27819742156152 4.60910524356876 M-119.27819742156152 4.60910524356876 C-119.34282486261448 3.6024806828373825, -119.40745230366744 2.595856122106005, -119.47533837763302 1.538475723439454 M-119.27819742156152 4.60910524356876 C-119.35498760272654 3.413036188004857, -119.43177778389158 2.2169671324409532, -119.47533837763302 1.538475723439454 M-119.47533837763302 1.538475723439454 C-119.47533837763302 0.6344427002273263, -119.47533837763302 -0.26959032298480134, -119.47533837763302 -1.5384757234394306 M-119.47533837763302 1.538475723439454 C-119.47533837763302 0.5252894508254711, -119.47533837763302 -0.4878968217885118, -119.47533837763302 -1.5384757234394306 M-119.47533837763302 -1.5384757234394306 C-119.42836718275949 -2.2700899980608344, -119.38139598788595 -3.001704272682238, -119.27819742156152 -4.6091052435686946 M-119.47533837763302 -1.5384757234394306 C-119.40070162162351 -2.7010034439926667, -119.326064865614 -3.8635311645459027, -119.27819742156152 -4.6091052435686946 M-119.27819742156152 -4.6091052435686946 C-119.17916925048242 -5.377148183133918, -119.08014107940332 -6.145191122699142, -118.8847256038936 -7.660794961602203 M-119.27819742156152 -4.6091052435686946 C-119.1548656799274 -5.565641877075825, -119.03153393829328 -6.522178510582955, -118.8847256038936 -7.660794961602203 M-118.8847256038936 -7.660794961602203 C-118.66703601889502 -8.778584971859852, -118.44934643389644 -9.896374982117498, -118.29653978472754 -10.681004829903081 M-118.8847256038936 -7.660794961602203 C-118.69785101777359 -8.620356465370715, -118.51097643165357 -9.579917969139226, -118.29653978472754 -10.681004829903081 M-118.29653978472754 -10.681004829903081 C-118.00610333509043 -11.788564888322894, -117.71566688545332 -12.896124946742706, -117.51605694575971 -13.657324158289534 M-118.29653978472754 -10.681004829903081 C-118.07991733853241 -11.507080102007158, -117.8632948923373 -12.333155374111236, -117.51605694575971 -13.657324158289534 M-117.51605694575971 -13.657324158289534 C-117.25986682721849 -14.428927976983589, -117.00367670867725 -15.200531795677643, -116.54648425838852 -16.577522612222733 M-117.51605694575971 -13.657324158289534 C-117.2915691755415 -14.333445554917905, -117.0670814053233 -15.009566951546274, -116.54648425838852 -16.577522612222733 M-116.54648425838852 -16.577522612222733 C-116.08577271123802 -17.715489040936255, -115.62506116408753 -18.853455469649777, -115.391805904759 -19.429600469874895 M-116.54648425838852 -16.577522612222733 C-116.28517845212926 -17.22295300568717, -116.02387264587 -17.868383399151604, -115.391805904759 -19.429600469874895 M-115.391805904759 -19.429600469874895 C-114.93270290487295 -20.3829376723688, -114.47359990498693 -21.336274874862703, -114.05676670590401 -22.20183793156008 M-115.391805904759 -19.429600469874895 C-115.11704511118828 -20.000147136663703, -114.84228431761755 -20.570693803452507, -114.05676670590401 -22.20183793156008 M-114.05676670590401 -22.20183793156008 C-113.51167682064758 -23.16970021916905, -112.96658693539113 -24.137562506778025, -112.54685262425662 -24.882843278905213 M-114.05676670590401 -22.20183793156008 C-113.4710750351959 -23.241792800615105, -112.88538336448778 -24.28174766967013, -112.54685262425662 -24.882843278905213 M-112.54685262425662 -24.882843278905213 C-112.17731395870398 -25.450553904219984, -111.80777529315132 -26.018264529534754, -110.86826822065387 -27.461599685864144 M-112.54685262425662 -24.882843278905213 C-111.92186266279344 -25.842995693016174, -111.29687270133026 -26.803148107127136, -110.86826822065387 -27.461599685864144 M-110.86826822065387 -27.461599685864144 C-110.18821539277569 -28.372808521133777, -109.50816256489752 -29.28401735640341, -109.02791115846544 -29.927510489219202 M-110.86826822065387 -27.461599685864144 C-110.44510807714369 -28.028595727485655, -110.02194793363351 -28.595591769107166, -109.02791115846544 -29.927510489219202 M-109.02791115846544 -29.927510489219202 C-108.32968385120947 -30.747688014581367, -107.63145654395349 -31.567865539943533, -107.03334385961517 -32.27044273254319 M-109.02791115846544 -29.927510489219202 C-108.24154517855347 -30.851220714715655, -107.45517919864149 -31.77493094021211, -107.03334385961517 -32.27044273254319 M-107.03334385961517 -32.27044273254319 C-106.36925119135896 -32.956172935539776, -105.70515852310274 -33.64190313853637, -104.89276242896737 -34.480768804690896 M-107.03334385961517 -32.27044273254319 C-106.23395584343614 -33.09587649022474, -105.4345678272571 -33.92131024790629, -104.89276242896737 -34.480768804690896 M-104.89276242896737 -34.480768804690896 C-104.27822482506964 -35.03887559677682, -103.66368722117193 -35.59698238886275, -102.61496297477387 -36.549406001718424 M-104.89276242896737 -34.480768804690896 C-104.15802078640674 -35.14804172426589, -103.42327914384612 -35.815314643840885, -102.61496297477387 -36.549406001718424 M-102.61496297477387 -36.549406001718424 C-101.67619197734749 -37.298050890420555, -100.7374209799211 -38.04669577912269, -100.20930546357837 -38.46785384966191 M-102.61496297477387 -36.549406001718424 C-101.88957039125421 -37.12788728356801, -101.16417780773456 -37.70636856541759, -100.20930546357837 -38.46785384966191 M-100.20930546357837 -38.46785384966191 C-99.41977324713703 -39.0185973455526, -98.63024103069569 -39.56934084144329, -97.68567525810636 -40.22822903480834 M-100.20930546357837 -38.46785384966191 C-99.64428006630877 -38.86199110724196, -99.07925466903914 -39.25612836482202, -97.68567525810636 -40.22822903480834 M-97.68567525810636 -40.22822903480834 C-96.75096320219026 -40.79485697608242, -95.81625114627417 -41.36148491735651, -95.05444249618901 -41.823297797922685 M-97.68567525810636 -40.22822903480834 C-97.13259261864007 -40.563510981127166, -96.57950997917378 -40.89879292744599, -95.05444249618901 -41.823297797922685 M-95.05444249618901 -41.823297797922685 C-94.17274937429542 -42.28327653486318, -93.29105625240183 -42.74325527180366, -92.3264194776428 -43.246505659316114 M-95.05444249618901 -41.823297797922685 C-94.16166577671379 -42.28905884062213, -93.26888905723857 -42.754819883321574, -92.3264194776428 -43.246505659316114 M-92.3264194776428 -43.246505659316114 C-91.35302463028827 -43.67739868350774, -90.37962978293373 -44.10829170769936, -89.51281623420998 -44.49200435260903 M-92.3264194776428 -43.246505659316114 C-91.48578024644287 -43.618631710291524, -90.64514101524294 -43.99075776126694, -89.51281623420998 -44.49200435260903 M-89.51281623420998 -44.49200435260903 C-88.7074567121087 -44.78838410140412, -87.9020971900074 -45.08476385019921, -86.62519446513383 -45.554675856512084 M-89.51281623420998 -44.49200435260903 C-88.82754697089284 -44.74418977606937, -88.1422777075757 -44.99637519952971, -86.62519446513383 -45.554675856512084 M-86.62519446513383 -45.554675856512084 C-85.90399808890191 -45.76872315534069, -85.18280171267001 -45.982770454169284, -83.6754200276564 -46.4301534258734 M-86.62519446513383 -45.554675856512084 C-85.6320658259488 -45.84943122358359, -84.63893718676377 -46.14418659065511, -83.6754200276564 -46.4301534258734 M-83.6754200276564 -46.4301534258734 C-82.58793011170944 -46.67836590265338, -81.5004401957625 -46.92657837943337, -80.67561417766589 -47.11483953557113 M-83.6754200276564 -46.4301534258734 C-83.01873032281017 -46.580038565703745, -82.36204061796394 -46.72992370553409, -80.67561417766589 -47.11483953557113 M-80.67561417766589 -47.11483953557113 C-79.83762729475656 -47.250318756114574, -78.99964041184722 -47.385797976658026, -77.63810376085632 -47.60592066351581 M-80.67561417766589 -47.11483953557113 C-79.74082700614143 -47.26596867608042, -78.80603983461695 -47.41709781658972, -77.63810376085632 -47.60592066351581 M-77.63810376085632 -47.60592066351581 C-76.46683616689266 -47.71891143965011, -75.295568572929 -47.83190221578441, -74.57537055907422 -47.901378852016144 M-77.63810376085632 -47.60592066351581 C-76.83534876172699 -47.68336147282768, -76.03259376259766 -47.76080228213955, -74.57537055907422 -47.901378852016144 M-74.57537055907422 -47.901378852016144 C-73.40493727436618 -47.938912369346546, -72.23450398965815 -47.97644588667695, -71.50000000000001 -48 M-74.57537055907422 -47.901378852016144 C-73.47625689757047 -47.93662528784561, -72.37714323606671 -47.97187172367508, -71.50000000000001 -48 M-71.50000000000001 -48 C-71.50000000000001 -48, -71.5 -48, -71.5 -48 M-71.50000000000001 -48 C-71.50000000000001 -48, -71.5 -48, -71.5 -48" stroke="#64748b" stroke-width="1.5" fill="none" stroke-dasharray="0 0" style="fill:#f8fafc !important;stroke:#64748b !important;stroke-width:1.5px !important"/></g><g class="label" style="color:#111827 !important" transform="translate(-100, -40.5)"><rect/><foreignObject width="200" height="81"><div style="color: rgb(17, 24, 39) !important; display: table; white-space: break-spaces; line-height: 1.5; max-width: 200px; text-align: center; width: 200px;" xmlns="http://www.w3.org/1999/xhtml"><span style="color:#111827 !important" class="nodeLabel"><p>운영 트리거<br /><b>webhook / API / schedule</b></p></span></div></foreignObject></g></g><g class="node default action" id="flowchart-APP-1" transform="translate(402.95849609375, 408.75)"><rect class="basic label-container" style="fill:#f8fafc !important;stroke:#64748b !important;stroke-width:1.5px !important" x="-98.0078125" y="-42" width="196.015625" height="84"/><g class="label" style="color:#111827 !important" transform="translate(-68.0078125, -27)"><rect/><foreignObject width="136.015625" height="54"><div style="color: rgb(17, 24, 39) !important; display: table-cell; white-space: nowrap; line-height: 1.5; max-width: 200px; text-align: center;" xmlns="http://www.w3.org/1999/xhtml"><span style="color:#111827 !important" class="nodeLabel"><p>jclee-bot App<br /><b>installation 조회</b></p></span></div></foreignObject></g></g><g class="node default action" id="flowchart-INV-3" transform="translate(675.99755859375, 408.75)"><rect class="basic label-container" style="fill:#f8fafc !important;stroke:#64748b !important;stroke-width:1.5px !important" x="-117.03125" y="-42" width="234.0625" height="84"/><g class="label" style="color:#111827 !important" transform="translate(-87.03125, -27)"><rect/><foreignObject width="174.0625" height="54"><div style="color: rgb(17, 24, 39) !important; display: table-cell; white-space: nowrap; line-height: 1.5; max-width: 200px; text-align: center;" xmlns="http://www.w3.org/1999/xhtml"><span style="color:#111827 !important" class="nodeLabel"><p>config/repos.yaml<br /><b>canonical repo rows</b></p></span></div></foreignObject></g></g><g class="node default source" id="flowchart-SOURCE-5" transform="translate(981.31005859375, 63.5)"><rect class="basic label-container" style="fill:#e8f3ff !important;stroke:#2563eb !important;stroke-width:2px !important" x="-125.3046875" y="-55.5" width="250.609375" height="111"/><g class="label" style="color:#111827 !important" transform="translate(-95.3046875, -40.5)"><rect/><foreignObject width="190.609375" height="81"><div style="color: rgb(17, 24, 39) !important; display: table-cell; white-space: nowrap; line-height: 1.5; max-width: 200px; text-align: center;" xmlns="http://www.w3.org/1999/xhtml"><span style="color:#111827 !important" class="nodeLabel"><p>Source row<br /><b>jclee-bot</b><br />deploy_workflows=false</p></span></div></foreignObject></g></g><g class="node default managed" id="flowchart-MANAGED-7" transform="translate(981.31005859375, 408.75)"><rect class="basic label-container" style="fill:#ecfdf3 !important;stroke:#16a34a !important;stroke-width:2px !important" x="-130.28125" y="-42" width="260.5625" height="84"/><g class="label" style="color:#111827 !important" transform="translate(-100.28125, -27)"><rect/><foreignObject width="200.5625" height="54"><div style="color: rgb(17, 24, 39) !important; display: table; white-space: break-spaces; line-height: 1.5; max-width: 200px; text-align: center; width: 200px;" xmlns="http://www.w3.org/1999/xhtml"><span style="color:#111827 !important" class="nodeLabel"><p>Managed rows<br /><b>deploy_workflows=true</b></p></span></div></foreignObject></g></g><g class="node default removed" id="flowchart-REMOVED-9" transform="translate(981.31005859375, 767.5)"><rect class="basic label-container" style="fill:#fff1f2 !important;stroke:#e11d48 !important;stroke-width:2px !important" x="-130" y="-55.5" width="260" height="111"/><g class="label" style="color:#111827 !important" transform="translate(-100, -40.5)"><rect/><foreignObject width="200" height="81"><div style="color: rgb(17, 24, 39) !important; display: table; white-space: break-spaces; line-height: 1.5; max-width: 200px; text-align: center; width: 200px;" xmlns="http://www.w3.org/1999/xhtml"><span style="color:#111827 !important" class="nodeLabel"><p>Removed rows<br /><b>deleted/excluded repos</b></p></span></div></foreignObject></g></g><g class="node default source" id="flowchart-SRC_CHECKS-11" transform="translate(1299.59130859375, 63.5)"><rect class="basic label-container" style="fill:#e8f3ff !important;stroke:#2563eb !important;stroke-width:2px !important" x="-122.0390625" y="-42" width="244.078125" height="84"/><g class="label" style="color:#111827 !important" transform="translate(-92.0390625, -27)"><rect/><foreignObject width="184.078125" height="54"><div style="color: rgb(17, 24, 39) !important; display: table-cell; white-space: nowrap; line-height: 1.5; max-width: 200px; text-align: center;" xmlns="http://www.w3.org/1999/xhtml"><span style="color:#111827 !important" class="nodeLabel"><p>소스 리포<br />Checks / CI / validation</p></span></div></foreignObject></g></g><g class="node default managed" id="flowchart-README-13" transform="translate(1299.59130859375, 193.5)"><rect class="basic label-container" style="fill:#ecfdf3 !important;stroke:#16a34a !important;stroke-width:2px !important" x="-126.5703125" y="-42" width="253.140625" height="84"/><g class="label" style="color:#111827 !important" transform="translate(-96.5703125, -27)"><rect/><foreignObject width="193.140625" height="54"><div style="color: rgb(17, 24, 39) !important; display: table-cell; white-space: nowrap; line-height: 1.5; max-width: 200px; text-align: center;" xmlns="http://www.w3.org/1999/xhtml"><span style="color:#111827 !important" class="nodeLabel"><p>README automation<br />bot/auto-readme-update</p></span></div></foreignObject></g></g><g class="node default managed" id="flowchart-CHECKS-15" transform="translate(1299.59130859375, 337)"><rect class="basic label-container" style="fill:#ecfdf3 !important;stroke:#16a34a !important;stroke-width:2px !important" x="-130" y="-55.5" width="260" height="111"/><g class="label" style="color:#111827 !important" transform="translate(-100, -40.5)"><rect/><foreignObject width="200" height="81"><div style="color: rgb(17, 24, 39) !important; display: table; white-space: break-spaces; line-height: 1.5; max-width: 200px; text-align: center; width: 200px;" xmlns="http://www.w3.org/1999/xhtml"><span style="color:#111827 !important" class="nodeLabel"><p>Checks API<br />metadata / secrets / actionlint / docs</p></span></div></foreignObject></g></g><g class="node default managed" id="flowchart-ISSUES-17" transform="translate(1299.59130859375, 480.5)"><rect class="basic label-container" style="fill:#ecfdf3 !important;stroke:#16a34a !important;stroke-width:2px !important" x="-120.03125" y="-42" width="240.0625" height="84"/><g class="label" style="color:#111827 !important" transform="translate(-90.03125, -27)"><rect/><foreignObject width="180.0625" height="54"><div style="color: rgb(17, 24, 39) !important; display: table-cell; white-space: nowrap; line-height: 1.5; max-width: 200px; text-align: center;" xmlns="http://www.w3.org/1999/xhtml"><span style="color:#111827 !important" class="nodeLabel"><p>Issue automation<br />label / stale / summary</p></span></div></foreignObject></g></g><g class="node default managed" id="flowchart-POLICY-19" transform="translate(1299.59130859375, 624)"><rect class="basic label-container" style="fill:#ecfdf3 !important;stroke:#16a34a !important;stroke-width:2px !important" x="-130" y="-55.5" width="260" height="111"/><g class="label" style="color:#111827 !important" transform="translate(-100, -40.5)"><rect/><foreignObject width="200" height="81"><div style="color: rgb(17, 24, 39) !important; display: table; white-space: break-spaces; line-height: 1.5; max-width: 200px; text-align: center; width: 200px;" xmlns="http://www.w3.org/1999/xhtml"><span style="color:#111827 !important" class="nodeLabel"><p>Repo policy CLIs<br />branch protection / rulesets / cleanup</p></span></div></foreignObject></g></g><g class="node default removed" id="flowchart-OFF-21" transform="translate(1299.59130859375, 767.5)"><rect class="basic label-container" style="fill:#fff1f2 !important;stroke:#e11d48 !important;stroke-width:2px !important" x="-103.5234375" y="-42" width="207.046875" height="84"/><g class="label" style="color:#111827 !important" transform="translate(-73.5234375, -27)"><rect/><foreignObject width="147.046875" height="54"><div style="color: rgb(17, 24, 39) !important; display: table-cell; white-space: nowrap; line-height: 1.5; max-width: 200px; text-align: center;" xmlns="http://www.w3.org/1999/xhtml"><span style="color:#111827 !important" class="nodeLabel"><p>App/CLI 대상 제외<br />row removed</p></span></div></foreignObject></g></g><g class="node default managed" id="flowchart-PR-23" transform="translate(1569.59912109375, 193.5)"><polygon points="82.0078125,0 164.015625,-82.0078125 82.0078125,-164.015625 0,-82.0078125" class="label-container" transform="translate(-81.5078125, 82.0078125)" style="fill:#ecfdf3 !important;stroke:#16a34a !important;stroke-width:2px !important"/><g class="label" style="color:#111827 !important" transform="translate(-53.5078125, -13.5)"><rect/><foreignObject width="107.015625" height="27"><div style="color: rgb(17, 24, 39) !important; display: table-cell; white-space: nowrap; line-height: 1.5; max-width: 200px; text-align: center;" xmlns="http://www.w3.org/1999/xhtml"><span style="color:#111827 !important" class="nodeLabel"><p>README PR</p></span></div></foreignObject></g></g><g class="node default managed" id="flowchart-UPDATE-25" transform="translate(1857.13037109375, 142)"><rect class="basic label-container" style="fill:#ecfdf3 !important;stroke:#16a34a !important;stroke-width:2px !important" x="-101.5078125" y="-28.5" width="203.015625" height="57"/><g class="label" style="color:#111827 !important" transform="translate(-71.5078125, -13.5)"><rect/><foreignObject width="143.015625" height="27"><div style="color: rgb(17, 24, 39) !important; display: table-cell; white-space: nowrap; line-height: 1.5; max-width: 200px; text-align: center;" xmlns="http://www.w3.org/1999/xhtml"><span style="color:#111827 !important" class="nodeLabel"><p>기존 PR 업데이트</p></span></div></foreignObject></g></g><g class="node default managed" id="flowchart-CREATE-27" transform="translate(1857.13037109375, 245)"><rect class="basic label-container" style="fill:#ecfdf3 !important;stroke:#16a34a !important;stroke-width:2px !important" x="-83.5078125" y="-28.5" width="167.015625" height="57"/><g class="label" style="color:#111827 !important" transform="translate(-53.5078125, -13.5)"><rect/><foreignObject width="107.015625" height="27"><div style="color: rgb(17, 24, 39) !important; display: table-cell; white-space: nowrap; line-height: 1.5; max-width: 200px; text-align: center;" xmlns="http://www.w3.org/1999/xhtml"><span style="color:#111827 !important" class="nodeLabel"><p>신규 PR 생성</p></span></div></foreignObject></g></g><g class="node default managed" id="flowchart-GATE-29" transform="translate(2108.67724609375, 193.5)"><polygon points="92.0390625,0 184.078125,-92.0390625 92.0390625,-184.078125 0,-92.0390625" class="label-container" transform="translate(-91.5390625, 92.0390625)" style="fill:#ecfdf3 !important;stroke:#16a34a !important;stroke-width:2px !important"/><g class="label" style="color:#111827 !important" transform="translate(-63.5390625, -13.5)"><rect/><foreignObject width="127.078125" height="27"><div style="color: rgb(17, 24, 39) !important; display: table-cell; white-space: nowrap; line-height: 1.5; max-width: 200px; text-align: center;" xmlns="http://www.w3.org/1999/xhtml"><span style="color:#111827 !important" class="nodeLabel"><p>required checks</p></span></div></foreignObject></g></g><g class="node default managed" id="flowchart-MERGE-33" transform="translate(2372.77880859375, 142)"><rect class="basic label-container" style="fill:#ecfdf3 !important;stroke:#16a34a !important;stroke-width:2px !important" x="-76.03125" y="-28.5" width="152.0625" height="57"/><g class="label" style="color:#111827 !important" transform="translate(-46.03125, -13.5)"><rect/><foreignObject width="92.0625" height="27"><div style="color: rgb(17, 24, 39) !important; display: table-cell; white-space: nowrap; line-height: 1.5; max-width: 200px; text-align: center;" xmlns="http://www.w3.org/1999/xhtml"><span style="color:#111827 !important" class="nodeLabel"><p>auto-merge</p></span></div></foreignObject></g></g><g class="node default managed" id="flowchart-HOLD-35" transform="translate(2372.77880859375, 245)"><rect class="basic label-container" style="fill:#ecfdf3 !important;stroke:#16a34a !important;stroke-width:2px !important" x="-68.5078125" y="-28.5" width="137.015625" height="57"/><g class="label" style="color:#111827 !important" transform="translate(-38.5078125, -13.5)"><rect/><foreignObject width="77.015625" height="27"><div style="color: rgb(17, 24, 39) !important; display: table-cell; white-space: nowrap; line-height: 1.5; max-width: 200px; text-align: center;" xmlns="http://www.w3.org/1999/xhtml"><span style="color:#111827 !important" class="nodeLabel"><p>수동 개입</p></span></div></foreignObject></g></g></g></g></g></svg>